<svg width="64" height="64" viewBox="0 0 64 64" xmlns="http://www.w3.org/2000/svg">
  <!-- Background circle -->
  <circle cx="32" cy="32" r="30" fill="#4A90E2" stroke="#2E5C8A" stroke-width="2"/>
  
  <!-- P letter -->
  <g fill="#FFFFFF">
    <!-- P vertical line -->
    <rect x="12" y="16" width="4" height="32" rx="1"/>
    <!-- P top horizontal -->
    <rect x="12" y="16" width="16" height="4" rx="1"/>
    <!-- P middle horizontal -->
    <rect x="12" y="28" width="12" height="4" rx="1"/>
    <!-- P top right vertical -->
    <rect x="24" y="20" width="4" height="8" rx="1"/>
  </g>
  
  <!-- B letter -->
  <g fill="#FFD700">
    <!-- B vertical line -->
    <rect x="36" y="16" width="4" height="32" rx="1"/>
    <!-- B top horizontal -->
    <rect x="36" y="16" width="14" height="4" rx="1"/>
    <!-- B middle horizontal -->
    <rect x="36" y="28" width="14" height="4" rx="1"/>
    <!-- B bottom horizontal -->
    <rect x="36" y="44" width="14" height="4" rx="1"/>
    <!-- B top right vertical -->
    <rect x="46" y="20" width="4" height="8" rx="1"/>
    <!-- B bottom right vertical -->
    <rect x="46" y="32" width="4" height="12" rx="1"/>
  </g>
  
  <!-- Fun decorative elements -->
  <circle cx="20" cy="12" r="2" fill="#FFD700" opacity="0.8"/>
  <circle cx="44" cy="12" r="2" fill="#FFFFFF" opacity="0.8"/>
  <circle cx="16" cy="52" r="1.5" fill="#FFD700" opacity="0.6"/>
  <circle cx="48" cy="52" r="1.5" fill="#FFFFFF" opacity="0.6"/>
  
  <!-- Subtle shine effect -->
  <ellipse cx="24" cy="20" rx="8" ry="12" fill="url(#shine)" opacity="0.3"/>
  
  <defs>
    <linearGradient id="shine" x1="0%" y1="0%" x2="100%" y2="100%">
      <stop offset="0%" stop-color="#FFFFFF" stop-opacity="0.4"/>
      <stop offset="100%" stop-color="#FFFFFF" stop-opacity="0"/>
    </linearGradient>
  </defs>
</svg>